<svg version="1.2" xmlns="http://www.w3.org/2000/svg" viewBox="0 0 1176 764" width="1176" height="764">
	<title>undraw_Redesign_feedback_re_jvm0</title>
	<defs>
		<linearGradient id="g1" x1="712.9" y1="684.1" x2="712.9" y2="160.2" gradientUnits="userSpaceOnUse">
			<stop offset="0" stop-color="#808080" stop-opacity=".25"/>
			<stop offset=".54" stop-color="#808080" stop-opacity=".12"/>
			<stop offset="1" stop-color="#808080" stop-opacity=".1"/>
		</linearGradient>
		<linearGradient id="g2" x1="534.1" y1="679.9" x2="534.1" y2="108.2" gradientUnits="userSpaceOnUse">
			<stop offset="0" stop-color="#808080" stop-opacity=".25"/>
			<stop offset=".54" stop-color="#808080" stop-opacity=".12"/>
			<stop offset="1" stop-color="#808080" stop-opacity=".1"/>
		</linearGradient>
	</defs>
	<style>
		.s0 { opacity: .1;fill: #000000 } 
		.s1 { fill: none;stroke: #535461;stroke-miterlimit:10;stroke-width: 2 } 
		.s2 { fill: #00bfa6 } 
		.s3 { fill: url(#g1) } 
		.s4 { fill: #f8bdc5 } 
		.s5 { fill: #40414d } 
		.s6 { fill: #f6c6cd } 
		.s7 { fill: #594c76 } 
		.s8 { fill: #8b9cd1 } 
		.s9 { fill: #eb6475 } 
		.s10 { fill: #ffffff } 
		.s11 { fill: url(#g2) } 
		.s12 { fill: #fec3be } 
		.s13 { fill: #5a5773 } 
		.s14 { fill: #605d82 } 
		.s15 { fill: #67647e } 
		.s16 { fill: #916168 } 
		.s17 { fill: #fd6f8d } 
		.s18 { fill: #4d4981 } 
	</style>
	<path id="Layer" class="s0" d="m589.1 715c-140.9 0-254.8-18.4-254.8-41.1 0-22.7 113.9-41.1 254.8-41.1 141 0 254.9 18.4 254.9 41.1 0 22.7-113.9 41.1-254.9 41.1z"/>
	<path id="Layer" class="s0" d="m561.6 578c53.2-29.5 114.1-38.9 173.5-26.2 84.2 17.9 190 10.9 210.5-127.5 35-236.3-111.7-298.7-111.7-298.7 0 0-97.6-8.2-155.3-39.4-81.9-44.2-175.6-49.9-258-12.4-52.6 23.9-96 57.3-103.4 103-20.7 128.1 13.3 198.6-50.4 240.4-63.6 41.8-9.2 156.5 39.6 152.5 48.8-3.9 159.1-47.5 202.1 2.9 15.2 17.9 34.5 15.7 53.1 5.4z"/>
	<path id="Layer" class="s0" d="m887.7 659.2c-20.6 0-37.3-6-37.3-13.3 0-7.4 16.7-13.3 37.3-13.3 20.6 0 37.3 5.9 37.3 13.3 0 7.3-16.7 13.3-37.3 13.3z"/>
	<path id="Layer" fill-rule="evenodd" class="s1" d="m886.2 647.8c0 0 9.9-33.9-1.9-58.9q-1.9-3.9-3.1-8-1.2-4.2-1.8-8.4-0.5-4.3-0.4-8.6 0.1-4.4 1-8.6 0.4-2 0.9-4 0.5-2 1.1-4 0.6-2 1.3-3.9 0.7-2 1.4-3.9"/>
	<path id="Layer" class="s2" d="m877.4 523.8c0 4.1 7.5 16.2 7.5 16.2 0 0 7.5-12.1 7.5-16.2 0-2-0.8-3.9-2.2-5.4-1.4-1.4-3.3-2.2-5.3-2.2-2 0-3.9 0.8-5.3 2.2-1.4 1.5-2.2 3.4-2.2 5.4z"/>
	<path id="Layer" class="s2" d="m864.9 546.8c2.3 3.5 15.1 9.5 15.1 9.5 0 0-0.2-14.2-2.4-17.7-1.1-1.7-2.8-2.8-4.8-3.3-1.9-0.4-4 0-5.6 1.1-1.7 1.1-2.9 2.8-3.3 4.7-0.4 2 0 4 1.1 5.7z"/>
	<path id="Layer" class="s2" d="m865.5 586.1c3.7 1.9 17.8 0.6 17.8 0.6 0 0-7.3-12.1-11.1-14-1.7-0.9-3.8-1.1-5.7-0.4-1.9 0.6-3.4 1.9-4.3 3.7-0.9 1.8-1.1 3.9-0.5 5.8 0.7 1.8 2 3.4 3.8 4.3z"/>
	<path id="Layer" class="s2" d="m872.6 615.8c3.3 2.5 17.5 3.6 17.5 3.6 0 0-5.2-13.2-8.6-15.7-1.6-1.2-3.6-1.7-5.6-1.4-1.9 0.3-3.7 1.3-4.9 3-1.2 1.6-1.7 3.6-1.4 5.5 0.3 2 1.4 3.8 3 5z"/>
	<path id="Layer" class="s2" d="m895.8 557.1c-3 2.9-16.8 5.9-16.8 5.9 0 0 3.4-13.8 6.3-16.7 1.5-1.4 3.4-2.1 5.4-2.1 2 0 3.9 0.8 5.3 2.3 1.4 1.4 2.1 3.3 2.1 5.3 0 2-0.9 3.9-2.3 5.3z"/>
	<path id="Layer" class="s2" d="m903.7 591.9c-3.7 1.9-17.9 0.6-17.9 0.6 0 0 7.4-12.2 11.1-14 1.8-0.9 3.8-1.1 5.7-0.5 1.9 0.7 3.5 2 4.4 3.8 0.9 1.8 1 3.8 0.4 5.7-0.6 1.9-2 3.5-3.7 4.4z"/>
	<path id="Layer" class="s2" d="m906.7 626.8c-3.3 2.5-17.5 3.6-17.5 3.6 0 0 5.2-13.2 8.6-15.7 1.6-1.2 3.6-1.7 5.5-1.4 2 0.3 3.8 1.4 5 3 1.1 1.6 1.6 3.6 1.4 5.5-0.3 2-1.4 3.8-3 5z"/>
	<path id="Layer" class="s0" d="m232.9 642.6c-20.6 0-37.3-6-37.3-13.3 0-7.4 16.7-13.3 37.3-13.3 20.7 0 37.3 5.9 37.3 13.3 0 7.3-16.6 13.3-37.3 13.3z"/>
	<path id="Layer" fill-rule="evenodd" class="s1" d="m233 629.4c0 0 21.2-72.4-4-125.6-10.6-22.4-14.1-47.5-9.3-71.7q0.9-4.4 2-8.6 1.1-4.3 2.3-8.5 1.3-4.2 2.7-8.4 1.5-4.1 3.1-8.2"/>
	<path id="Layer" class="s2" d="m214.2 364.7c0 8.9 16 34.6 16 34.6 0 0 16-25.8 16-34.6 0-4.3-1.7-8.3-4.7-11.4-3-3-7.1-4.7-11.3-4.7-4.3 0-8.3 1.7-11.4 4.7-3 3.1-4.6 7.1-4.6 11.4z"/>
	<path id="Layer" class="s2" d="m187.7 413.8c4.8 7.5 32.2 20.3 32.2 20.3 0 0-0.5-30.3-5.3-37.7-2.3-3.7-5.9-6.3-10.1-7.3-4.3-0.9-8.7-0.2-12.3 2.2-3.6 2.3-6.1 6.1-7 10.3-0.9 4.2 0 8.6 2.5 12.2z"/>
	<path id="Layer" class="s2" d="m188.8 497.8c7.9 4 38.1 1.3 38.1 1.3 0 0-15.8-26-23.7-29.9-3.7-1.9-8.1-2.3-12.2-0.9-4 1.3-7.4 4.2-9.3 8-1.9 3.8-2.2 8.2-0.9 12.2 1.3 4.1 4.2 7.4 8 9.3z"/>
	<path id="Layer" class="s2" d="m204 561.1c7.1 5.3 37.3 7.7 37.3 7.7 0 0-11.1-28.3-18.3-33.5-3.4-2.5-7.7-3.6-11.9-3-4.2 0.7-8 2.9-10.5 6.4-2.5 3.4-3.6 7.7-3 11.9 0.7 4.2 3 8 6.4 10.5z"/>
	<path id="Layer" class="s2" d="m253.5 435.9c-6.3 6.1-35.9 12.5-35.9 12.5 0 0 7.2-29.4 13.6-35.6 3.1-2.9 7.2-4.6 11.4-4.5 4.3 0 8.3 1.8 11.3 4.8 2.9 3.1 4.6 7.2 4.5 11.5 0 4.2-1.8 8.3-4.8 11.2z"/>
	<path id="Layer" class="s2" d="m270.3 510.1c-7.9 4-38 1.3-38 1.3 0 0 15.7-25.9 23.6-29.9 3.8-1.9 8.2-2.3 12.2-0.9 4.1 1.3 7.4 4.2 9.3 8 1.9 3.8 2.3 8.2 0.9 12.3-1.3 4-4.2 7.3-8 9.3z"/>
	<path id="Layer" class="s2" d="m276.7 584.6c-7.1 5.3-37.3 7.6-37.3 7.6 0 0 11.2-28.2 18.3-33.4 3.4-2.6 7.7-3.6 11.9-3 4.2 0.6 8 2.9 10.5 6.3 2.5 3.4 3.6 7.7 3 11.9-0.7 4.3-2.9 8-6.4 10.6z"/>
	<path id="Layer" fill-rule="evenodd" class="s3" d="m848.6 357.5q-0.7 0.4-1.5 0.7-0.7 0.3-1.4 0.6-0.7 0.2-1.5 0.5l-24.2 104.6v2.9q0 2.6-0.7 5.1-0.7 2.5-2.1 4.8-1.4 2.2-3.3 4-1.9 1.8-4.3 3v200.4h-12.9v-198.1h-115.4v198.1h-13v-198.2c-1.3-0.1-2.7-0.5-4-1.1-1.2-0.6-2.3-1.4-3.3-2.5-1-1-1.7-2.2-2.2-3.5-0.5-1.3-0.8-2.6-0.8-4v-11.7c0-4.9 36.4-9.2 52.7-11.7-18.7-2.5-43.8-4.6-53.5 0.5q-1.1 0.2-1.9 0.8-0.9 0.5-1.6 1.3-0.6 0.8-1 1.8-0.3 1-0.3 2 0 0.4 0 0.7 0.1 0.3 0.1 0.6 0.1 0.4 0.1 0.7 0.1 0.3 0.2 0.6 0.2 1.1 0.3 2.1 0.1 1.1 0.2 2.1 0 1.1 0 2.1 0 1.1 0 2.2c0.1 18-3.8 58.8-3.8 58.8v17.3c2.7 4.1 6.1 10.2 5.7 14.7 0 0.1 0 0.2 0 0.3q-0.1 0.2-0.1 0.4 0 0.2-0.1 0.3 0 0.2-0.1 0.4c0 0.1-0.1 0.2-0.1 0.3 0 0.1-0.1 0.2-0.1 0.3-0.1 0.2-0.2 0.4-0.2 0.4q-0.1 0.1-0.2 0.3 0 0-0.1 0.1 0 0.1-0.1 0.2 0 0-0.1 0.1 0 0.1-0.1 0.1c-1.7 2-5.5 4.6-10.3 7.2q-1.4 0.8-2.9 1.5-2.3 1.2-4.7 2.3c-3.2 1.5-6.5 2.8-9.6 3.9-2.6 1-5.1 1.8-7.3 2.4q-1.4 0.3-2.6 0.5-0.5 0.1-1 0.2-0.5 0.1-1 0.1-0.5 0.1-1 0.1-0.6 0-1.1 0c-9.3-0.5-40.4 1.1-41.5-12.8q0-0.2 0-0.3 0-0.2 0-0.3 0-0.1 0.1-0.3 0-0.1 0.1-0.2c0.8-1.9 5.2-5.6 26-6.4 14.3-0.5 19.2-8.1 20.5-15.5-4.7-0.6-8.3-1.5-9.5-2.6 0 0 0-0.4 0.1-1q-0.1 0-0.1-0.1 0.3-2 0.6-4 0.2-2 0.4-4 0.2-2.1 0.3-4.1 0.1-2 0.1-4 0-1.8-0.1-3.5-0.1-1.7-0.2-3.5-0.2-1.7-0.5-3.4-0.3-1.7-0.6-3.4-0.3-1.1-0.4-2.2-0.2-1.2-0.3-2.3-0.1-1.1-0.1-2.3 0-1.1 0-2.3c-0.1-18 6.2-49.6 6.2-49.6l0.8-26.3q0.1-2.5 0.8-4.8 0.7-2.4 2-4.4 1.3-2.1 3.1-3.8 1.9-1.6 4-2.8 0.8-0.4 1.6-0.7 0.8-0.3 1.7-0.5 0.8-0.2 1.7-0.3 0.9-0.1 1.7-0.1c0 0 10.8-1.7 25.5-3.7 11.9-15.7 35.8-54.4 43.3-66.8q-0.2 0-0.1-0.3c-3.3 3-5.3 4.5-4.2 2.5q0.1-0.3 0.2-0.6 0.1-0.3 0.1-0.6 0.1-0.3 0.1-0.6 0-0.2-0.1-0.5l-2.5 5.5c0 0 12-41.7 14.2-49.1q0.1-0.4 0.2-0.8-3.1 0.8-6.4 1.3c3.2-8.1 7.1-16.9 14.6-21q0.4-0.3 0.8-0.5 0.4-0.2 0.8-0.4 0.4-0.2 0.8-0.4 0.5-0.2 0.9-0.4c1.5-0.6 3.2-1 4.7-1.7q0-0.1 0.1-0.2 0.1 0 0.2-0.1 0.1-0.1 0.2-0.1 0-0.1 0.1-0.2c-0.8-3.9-1.8-8.1-2.8-12.1-17.8-2.1-31.7-16.9-31.7-34.9q0-2.4 0.4-4.7 0.3-2.4 0.9-4.7 0.7-2.2 1.6-4.4 0.9-2.2 2.2-4.2-0.3-0.4-0.6-0.8-0.2-0.4-0.4-0.8-0.3-0.4-0.5-0.9-0.1-0.4-0.3-0.9c-2.1-6-0.2-13.1 4.1-17.9q0.7-0.7 1.4-1.4 0.8-0.7 1.5-1.3 0.8-0.6 1.6-1.1 0.9-0.5 1.7-1 1.5-0.9 3-1.6 1.5-0.7 3-1.2 1.6-0.5 3.3-0.9 1.6-0.3 3.2-0.4c3.9-0.4 7.9-0.2 11.3-1.9q0.6-0.5 1.3-1 0.6-0.5 1.1-1.1 0.6-0.5 1.2-1.1 0.6-0.5 1.1-1.1 0.6-0.5 1.3-1 0.6-0.6 1.3-1 0.6-0.5 1.3-0.9 0.7-0.5 1.4-0.9c6.5-4 14.6-5.5 22.3-5.1 9.4 0.4 18.5 3.3 27.5 6.1 3.4 1.1 7.2 2.7 8 6 0.6 2.6-0.8 5-1.3 7.6-1.6 8.1 6.3 14.7 13.8 18.5 7.4 3.8 16.1 7.8 18.2 15.8 1.9 7.1-2.5 14.1-5.4 20.9q-1.9 4.4-2.9 9.1-1 4.7-1.2 9.5-0.2 4.8 0.5 9.5 0.7 4.7 2.2 9.3c2.1 6.1 5.4 11.9 6.7 18.3q0.5 2.7 0.6 5.4 0 2.7-0.4 5.4-0.4 2.6-1.3 5.2-0.8 2.5-2.1 4.9c-1.1 1.8-2.3 3.7-2.5 5.8q0 0.7 0.1 1.3 0.1 0.7 0.2 1.3 0.2 0.7 0.4 1.3 0.3 0.6 0.6 1.2 0.9 2 1.9 3.8 1 1.9 2.2 3.7 1.2 1.8 2.5 3.5 1.3 1.6 2.8 3.2l0.5-2.3q0.4-1.4 1.3-2.6 0.9-1.3 2.1-2.1 1.3-0.7 2.8-1 1.5-0.2 2.9 0.1l2.9 0.6q1.4 0.3 2.7 1.2 1.2 0.8 2 2.1 0.8 1.2 1.1 2.7 0.3 1.5 0 2.9l-2.4 10.4q1 0.5 2 1 1 0.4 2 0.9 1.1 0.4 2.1 0.7 1 0.4 2.1 0.7-0.4 0.8-1 1.4-0.5 0.7-1.1 1.2-0.6 0.6-1.3 1.1-0.7 0.4-1.5 0.8-0.7 0.4-1.3 0.8zm-23.8 5c-2.7 0.2-5.4 0.4-8.1 0.4-5.6 0-11.2-0.4-16.3-2.6q-0.8-0.3-1.6-0.7-0.8-0.5-1.5-0.9-0.8-0.5-1.4-1.1-0.7-0.5-1.4-1.1c0.2 13.5 1.5 23.5 10.2 40.9q0.4 0.8 0.6 1.5 0.3 0.8 0.5 1.6 0.2 0.8 0.2 1.6 0.1 0.8 0 1.6 0.2 0.9 0.1 1.8-0.1 0.9-0.4 1.8-0.3 0.8-0.8 1.6-0.6 0.7-1.3 1.3 0.3 1.4 0.5 2.8 0.1 1.4 0.2 2.8 0.2 1.4 0.2 2.8 0.1 1.4 0.1 2.8c0.1 11-3 25.2-17.6 32.4 8.6 2.2 14 5.2 14.8 8.5zm-146.8 40.3c5.3-0.6 10.6-1.1 15.9-1.6 2.1-1.7 9.6-6.3 26.6-3.7l9.9-28.8q0-0.2 0-0.3 0-0.1 0.1-0.3 0-0.1 0-0.2 0-0.2 0-0.3c-0.3-3.7-2.8-9.2-14.1-9.6l-2.4 2.1c0 0-0.4-0.8-1.1-2.1-9.7 12.4-24.3 31-34.9 44.8z"/>
	<path id="Layer" class="s4" d="m685.4 321.8c0 0-38.7 65.2-47.7 73.9 0 0-38.7 40.2-19 37.4 1.4-0.2 29.7-24.2 31.3-28.1 1.7-3.9 55.2-73.5 55.2-73.5l-7.6-7.1z"/>
	<path id="Layer" class="s5" d="m792 478.5h12.3v195.5h-12.3z"/>
	<path id="Layer" class="s5" d="m669.5 478.5h12.2v195.5h-12.2z"/>
	<path id="Layer" class="s6" d="m659.7 460c0 7.5 50.9 13.5 82.1 13.5 31.1 0 55.1-6 55.1-13.5 0-7.4-24-13.5-55.1-13.5-31.2 0-82.1 6.1-82.1 13.5z"/>
	<path id="Layer" class="s5" d="m799.2 482.1h-130.8c-1.2 0.1-2.3-0.2-3.4-0.6-1-0.4-2-1.1-2.8-1.9-0.8-0.8-1.5-1.8-1.9-2.8-0.4-1.1-0.7-2.2-0.7-3.4v-13.4h154.5v7.2c0 2-0.4 3.9-1.1 5.7-0.8 1.8-1.9 3.5-3.3 4.9-1.3 1.4-3 2.5-4.8 3.2-1.8 0.8-3.8 1.1-5.7 1.1z"/>
	<path id="Layer" class="s5" d="m799.1 479.8l-6.5-1.4 32.4-144.2q0.3-1.1 0.9-2 0.7-1 1.7-1.6 1-0.6 2.1-0.8 1.1-0.2 2.3 0.1l5.4 1.2q1.1 0.2 2.1 0.9 0.9 0.7 1.5 1.7 0.7 0.9 0.9 2.1 0.2 1.1-0.1 2.2l-30.2 133.9c-0.3 1.3-0.8 2.6-1.6 3.7-0.8 1.2-1.8 2.1-3 2.9-1.2 0.7-2.5 1.2-3.8 1.4-1.4 0.3-2.8 0.2-4.1-0.1z"/>
	<path id="Layer" class="s7" d="m650 535c0 0 12.4 15.5 7.3 21.7-5.2 6.2-30.9 18-39.2 17.5-8.8-0.5-38.2 1.1-39.2-12.4 0 0-2.1-6.2 24.7-7.2 26.9-1 18.6-29 18.6-29z"/>
	<path id="Layer" class="s0" d="m797.5 404.7c0 0 12.4 42.4-24.7 49.6l-40.3-2c0 0-56.7-11.4-72.2-3.1 0 0-6.2 1-4.1 9.3 2 8.3-3.1 64-3.1 64v18.6c0 0-35.1 0-39.2-4.1 0 0 3.1-16.5 0-30-3.1-13.4 5.2-55.8 5.2-55.8l0.8-25.4q0-2.4 0.7-4.7 0.7-2.2 1.9-4.3 1.2-2 2.9-3.6 1.8-1.6 3.8-2.7 0.8-0.4 1.5-0.7 0.8-0.3 1.6-0.5 0.8-0.2 1.6-0.3 0.8-0.1 1.7-0.1c0.5 0 70.1-11.4 94.9-9.3 24.7 2 67 5.1 67 5.1z"/>
	<path id="Layer" class="s8" d="m797.5 403.7c0 0 12.4 42.4-24.7 49.6l-40.3-2.1c0 0-56.7-11.3-72.2-3.1 0 0-6.2 1.1-4.1 9.3 2 8.3-3.1 64.1-3.1 64.1v18.6c0 0-35.1 0-39.2-4.2 0 0 3.1-16.5 0-29.9-3.1-13.5 5.2-55.8 5.2-55.8l0.8-25.5q0-2.4 0.7-4.6 0.7-2.3 1.9-4.3 1.2-2 2.9-3.7 1.8-1.6 3.8-2.7 0.8-0.4 1.5-0.7 0.8-0.3 1.6-0.5 0.8-0.2 1.6-0.3 0.9-0.1 1.7-0.1c0.5 0 70.1-11.4 94.9-9.3 24.7 2.1 67 5.2 67 5.2z"/>
	<path id="Layer" class="s2" d="m728.4 268.3c0 0-18.6 21.7-20.6 29-2.1 7.2-24.8 25.8-24.8 25.8 0 0 16.5 12.4 13.5 18.6-3.1 6.2 21.6-20.7 21.6-20.7l28.9-42.3z"/>
	<path id="Layer" class="s0" d="m728.4 268.3c0 0-18.6 21.7-20.6 29-2.1 7.2-24.8 25.8-24.8 25.8 0 0 16.5 12.4 13.5 18.6-3.1 6.2 21.6-20.7 21.6-20.7l28.9-42.3z"/>
	<path id="Layer" class="s4" d="m716 243.5c0 0 9.3 30 9.3 41.4 0 11.3 39.2-3.1 38.1-9.3-1-6.2-22.7-29-23.7-38.2-1-9.3-23.7 6.1-23.7 6.1z"/>
	<path id="Layer" class="s0" d="m747 264.2c0 0 36.1-9.3 41.3 43.4 5.1 52.7-4.2 58.9 11.3 90.9 15.5 32.1-105.2 4.2-105.2 4.2 0 0 6.2-7.2 25.8-4.2l9.3-27.9c0 0 3.1-12.4-14.5-12.4-17.5 0-9.2-36.1-9.2-36.1 0 0 9.2-31 14.4-34.1 5.1-3.1 14.4-21.7 26.8-23.8z"/>
	<path id="Layer" class="s2" d="m747 262.1c0 0 36.1-9.3 41.3 43.4 5.1 52.7-4.2 58.9 11.3 91 15.5 32-105.2 4.1-105.2 4.1 0 0 6.2-7.2 25.8-4.1l9.3-27.9c0 0 3.1-12.4-14.5-12.4-17.5 0-9.2-36.2-9.2-36.2 0 0 9.2-31 14.4-34.1 5.1-3.1 14.4-21.7 26.8-23.8z"/>
	<path id="Layer" class="s4" d="m702.8 335.9c0 0-38.7 65.3-47.7 73.9 0 0-38.7 40.2-19 37.4 1.4-0.2 29.7-24.2 31.4-28.1 1.6-3.9 55.1-73.5 55.1-73.5l-7.6-7.1z"/>
	<path id="Layer" class="s0" d="m768.6 310.7l-54.7 49.6c0 0-10.2-20.7-13.3-20.7-3.1 0 37.1-60.9 37.1-60.9 0 0 10.3-12.4 16.5-6.2 6.2 6.2 24.8 2 14.4 38.2z"/>
	<path id="Layer" class="s2" d="m769.7 308.6l-54.7 49.6c0 0-10.4-20.6-13.4-20.6-3.1 0 37.1-61 37.1-61 0 0 10.3-12.4 16.5-6.2 6.2 6.2 24.8 2.1 14.5 38.2z"/>
	<path id="Layer" class="s4" d="m725.3 262.1c-18.8 0-34-15.2-34-34.1 0-18.8 15.2-34.1 34-34.1 18.8 0 34 15.3 34 34.1 0 18.9-15.2 34.1-34 34.1z"/>
	<path id="Layer" class="s0" d="m708.8 216.8c-6.2 0.9-12.4-3.5-14.4-9.4-2.1-5.9-0.3-12.7 3.8-17.4 4.1-4.6 10.3-7.2 16.4-7.8 3.8-0.4 7.8-0.1 11.1-2 2-1.2 3.6-3.1 5.3-4.7 6.5-6.2 15.9-8.4 24.8-8 8.9 0.4 17.5 3.2 26 6 3.2 1 6.8 2.6 7.6 5.8 0.5 2.5-0.9 4.9-1.3 7.3-1.5 7.8 6 14.2 13 17.9 7 3.8 15.3 7.7 17.2 15.4 1.8 6.9-2.4 13.7-5.1 20.2q-1.8 4.3-2.7 8.8-1 4.6-1.2 9.2-0.1 4.6 0.5 9.2 0.7 4.6 2.1 9c2 5.9 5.1 11.6 6.3 17.7q0.5 2.6 0.6 5.2 0 2.6-0.4 5.2-0.3 2.6-1.2 5.1-0.8 2.5-2 4.8c-1 1.8-2.2 3.6-2.3 5.6q0 0.7 0.1 1.3 0 0.6 0.2 1.2 0.1 0.7 0.4 1.3 0.2 0.6 0.5 1.1 2.2 5.1 5.5 9.5 3.2 4.5 7.3 8.2 4.1 3.7 8.8 6.5 4.8 2.7 10 4.4c-2.2 4.1-7 5.7-11.5 6.8q-2.8 0.7-5.7 1.2-2.9 0.5-5.8 0.8-2.9 0.4-5.8 0.6-3 0.2-5.9 0.2c-5.2 0-10.6-0.3-15.4-2.5-4.8-2.2-9-6.3-9.9-11.5-0.5-3 0.1-6.1-0.3-9.1-0.8-6.8-6.3-12.2-8.3-18.7-1.9-6.3-3-7.3-2.3-13.8 0.7-6.5 0.6-13.7-3.6-18.7-4.5-5.3-12.3-6.4-19-4.9-6.7 1.4-10.1-0.7-16.3 2.5q-4 2-8.1 3.7-4.2 1.8-8.4 3.2-4.3 1.5-8.6 2.6-4.4 1.2-8.8 2c3.2-8.5 7.2-17.8 15.6-21.3 2.4-0.9 5.2-1.5 6.8-3.5 2.6-3.2 0.9-8.4 3.1-11.8 2.3-3.5 7.6-3.7 10.7-6.6 2.6-2.4 3.1-6.5 2.1-10-1.1-3.4-3.3-6.3-5.5-9.1q-3-3.7-6.2-7.3-0.7-0.8-1.4-1.6-0.6-0.8-1.2-1.7-0.6-0.8-1.2-1.7-0.5-0.9-1-1.9c-0.7-1.6-0.6-4.8-1.7-6.1-2.9-3.3-9.8 1.2-13.3 1.6z"/>
	<path id="Layer" class="s9" d="m710 216.1c-6.1 0.8-12.4-3.6-14.4-9.5-2-5.8-0.2-12.7 3.9-17.3 4.1-4.7 10.2-7.3 16.4-7.9 3.8-0.4 7.8-0.1 11-2 2.1-1.2 3.6-3.1 5.4-4.7 6.4-6.1 15.9-8.3 24.8-7.9 8.9 0.4 17.5 3.2 26 5.9 3.1 1.1 6.8 2.6 7.5 5.9 0.6 2.4-0.8 4.8-1.3 7.3-1.4 7.8 6.1 14.2 13.1 17.9 7 3.7 15.2 7.6 17.2 15.3 1.7 6.9-2.4 13.7-5.2 20.3q-1.7 4.3-2.7 8.8-0.9 4.5-1.1 9.1-0.2 4.7 0.5 9.2 0.6 4.6 2.1 9c2 6 5.1 11.6 6.3 17.8q0.5 2.5 0.5 5.2 0.1 2.6-0.3 5.2-0.4 2.5-1.2 5-0.8 2.5-2.1 4.8c-0.9 1.8-2.1 3.6-2.2 5.7q-0.1 0.6 0 1.2 0.1 0.7 0.2 1.3 0.2 0.6 0.4 1.2 0.2 0.6 0.5 1.2 2.3 5 5.5 9.5 3.2 4.5 7.3 8.1 4.1 3.7 8.9 6.5 4.7 2.8 10 4.5c-2.2 4-7.1 5.7-11.5 6.7q-2.9 0.7-5.8 1.2-2.8 0.5-5.8 0.9-2.9 0.3-5.8 0.5-2.9 0.2-5.8 0.2c-5.3 0.1-10.7-0.3-15.5-2.5-4.8-2.1-8.9-6.3-9.9-11.5-0.5-3 0.1-6.1-0.3-9.1-0.8-6.8-6.3-12.1-8.3-18.7-1.9-6.3-3-7.2-2.2-13.7 0.7-6.6 0.6-13.8-3.7-18.8-4.4-5.2-12.2-6.4-18.9-4.9-6.7 1.5-10.2-0.6-16.3 2.5q-4 2-8.2 3.8-4.1 1.7-8.4 3.2-4.2 1.4-8.6 2.6-4.3 1.1-8.7 2c3.2-8.5 7.2-17.9 15.6-21.3 2.4-1 5.2-1.5 6.8-3.5 2.6-3.3 0.8-8.4 3.1-11.9 2.2-3.5 7.6-3.6 10.6-6.5 2.6-2.5 3.1-6.6 2.1-10-1-3.5-3.2-6.4-5.5-9.2q-3-3.7-6.1-7.3-0.7-0.8-1.4-1.6-0.7-0.8-1.3-1.6-0.5-0.9-1.1-1.8-0.5-0.9-1-1.8c-0.7-1.7-0.5-4.8-1.7-6.1-3-3.4-9.8 1.1-13.4 1.6z"/>
	<path id="Layer" class="s10" d="m623.3 533.8q0-1-0.1-2.1-0.1-1-0.2-2-0.2-1-0.4-2-0.2-1.1-0.4-2l0.5 0.1q0.2 1 0.3 2 0.2 1 0.2 2 0.1 1 0.1 2 0.1 1 0 2z"/>
	<path id="Layer" class="s10" d="m618 572.1c8.3 0.5 34.1-11.3 39.2-17.5q0.3-0.4 0.5-0.7 0.2-0.3 0.3-0.7 0.2-0.4 0.3-0.8 0.1-0.4 0.1-0.8 0.1 0.7 0.1 1.3 0 0.7-0.2 1.3-0.1 0.7-0.4 1.3-0.3 0.6-0.7 1.1c-5.1 6.2-30.9 18.1-39.2 17.6-8.7-0.5-38.1 1-39.2-12.4q0-0.2 0-0.3 0-0.1 0-0.3 0-0.1 0.1-0.2 0-0.2 0.1-0.3c2.3 12.4 30.5 10.9 39 11.4z"/>
	<path id="Layer" class="s11" d="m397.8 578.7c5-1.6 12.4-3.5 18.3-2.9 5.6-2 18.7-7.3 27.7-15.2q-0.1-3-0.1-5.9 0-2.9 0.1-5.9 0-2.9 0.2-5.8 0.2-3 0.4-5.9c4.6-52.3-5.7-86.7-5.7-86.7 0 0-8.1-26.3-7.2-48.2-0.6 1-0.9 1.6-0.9 1.6-0.7-18.8-7.1-38.3-11.9-50.4q0 0-0.1-0.1-0.1 0-0.2 0 0 0-0.1-0.1-0.1 0-0.1 0l-5.5-12.7q-0.1-0.3-0.3-0.6-0.1-0.3-0.2-0.6-0.2-0.3-0.3-0.6-0.1-0.3-0.2-0.6l-0.8-2 0.3-0.1q-0.2-0.5-0.3-1c-3.4-14.5-6-48.9-6-48.9-9.2-36.2 12.6-58.7 12.6-58.7l36.9-31.9q0 0.2-0.1 0.4 0 0.1-0.1 0.3 0 0.1-0.1 0.3 0 0.2 0 0.3l0.3-0.2c0.5-1.5 1.1-3.3 1.6-5.4q-0.4-0.3-0.9-0.7-0.5-0.4-1-0.8-0.4-0.3-0.9-0.8-0.4-0.4-0.8-0.8-1.6-1.5-2.9-3.2-1.4-1.7-2.4-3.6-1.1-1.9-1.8-3.9-0.8-2-1.2-4.1c-0.9-4.4-0.8-9-0.6-13.5l0.6-15.3q0-1.2 0.1-2.3 0.1-1.1 0.2-2.2 0.1-1.2 0.3-2.3 0.1-1.1 0.4-2.2c2.7-12.2 15.2-20.8 27.7-21.3 4-0.2 8 0.3 12 0.6q1.2 0.1 2.4 0.2 1.2 0.1 2.4 0.1 1.2 0 2.5 0 1.2 0 2.4-0.1 0.1 0 0.3 0 0.1 0 0.2 0 0.2 0 0.3-0.1 0.1-0.1 0.2-0.1 0.1-0.1 0.2-0.3 0.1-0.1 0.2-0.2 0-0.2 0-0.3 0.1-0.1 0.1-0.3 0-0.5 0-1.1-0.1-0.5-0.3-1-0.1-0.5-0.4-1-0.3-0.5-0.6-0.9-0.2-0.1-0.4-0.3-0.2-0.1-0.4-0.2-0.2-0.1-0.4-0.2-0.2-0.1-0.5-0.2l0.9 0.2q-0.1-0.1-0.3-0.2-0.2-0.2-0.4-0.3-0.2-0.1-0.4-0.1-0.1-0.1-0.3-0.2c3.2 0.8 6.4 1.6 9.2 3.3q0.3 0.2 0.6 0.4 0.2 0.2 0.5 0.5 0.3 0.2 0.5 0.4 0.3 0.3 0.5 0.5 0.7 0.6 1.2 1.3 0.5 0.6 0.9 1.4 0.4 0.7 0.7 1.5 0.2 0.8 0.4 1.7c1.4-1.4 2.8-3 3.3-4.9q0-0.3 0.1-0.6 0-0.3 0-0.6 0-0.3 0-0.6-0.1-0.3-0.1-0.6 0.3 0.4 0.6 0.9 0-0.2-0.1-0.3 0.9 1.1 1.7 2.3 0.7 1.2 1.3 2.4 0.6 1.3 1.1 2.6 0.4 1.3 0.8 2.7 0.2-0.3 0.4-0.7 0.1-0.3 0.2-0.7 0.1-0.3 0.2-0.7 0-0.4-0.1-0.8 0.3 0.9 0.6 1.7 0-0.1 0-0.3 0-0.1 0-0.2 0-0.2 0-0.3 0-0.2 0-0.3 0.6 1.6 0.9 3.3 0.4 1.7 0.7 3.4 0.2 1.7 0.3 3.5 0.1 1.7 0 3.4c0 4.6-2 11.8-6.9 13.4q-0.4 0.2-0.8 0.2c2.7 4.4 4.4 9.3 4.8 14.4 0.4 5.1-0.5 10.3-2.5 15-2.1 4.7-5.3 8.8-9.3 11.9-4.1 3.2-8.9 5.3-13.9 6.1q-0.1 0.8-0.2 1.8h-0.2q-0.2 1.9-0.4 3.9 0.5 0.5 1 0.9 0.5 0.4 1 0.9 0.5 0.4 1 0.7 0.6 0.4 1.1 0.8 1.6 0.9 3.2 1.6 1.6 0.8 3.3 1.4 1.7 0.5 3.5 0.9 1.8 0.4 3.5 0.6 2.2 0.1 4.3 0.5 2.1 0.4 4.1 1 2.1 0.6 4.1 1.5 2 0.8 3.8 1.8c5.9 3.3 12.5 8.2 14.5 14 3.4 9.8 22.2 24.9 34.8 26.8l4.5-0.3 0.3-0.1v0.1h1.1 0.1 0.3 1.1c0 0 0.1 0.5 0.3 1.4 6.3-2.2 19.7-8.2 37.2-24.1 19.6-17.8 45.9-14.3 56-12q0.6 0.1 0.9 0.5 0.4 0.4 0.5 0.9 0.1 0.6-0.2 1-0.2 0.5-0.7 0.8c-4.1 2.3-10.5 5.5-13.4 5.9 0 0 6.1 6.4-0.4 9.8q-0.6 0.3-1.2 0.4-0.7 0.1-1.3 0-0.7 0-1.3-0.3-0.6-0.2-1.1-0.6c-3.2-2.3-11.9 2.9-24.6 5.6 0 0-35.7 37-53.4 42.8q-0.1 0.3-0.3 0.6-0.1 0.3-0.3 0.6-0.2 0.3-0.4 0.6-0.1 0.3-0.3 0.5l-1.1-0.1-0.1 0.1h-0.1l-0.2 1.2c0 0-27.5-1.5-36.4-11.5q-0.3-0.2-0.5-0.4-0.2-0.2-0.4-0.5-0.3-0.2-0.5-0.4-0.2-0.3-0.4-0.5l9.6 120.7h-0.1l0.1 1.2h-7q-0.3 5.6-0.3 11.1 0 5.6 0.3 11.2 0.2 5.6 0.7 11.1 0.5 5.6 1.2 11.1v78.7c0 0 0.3 7-14 17.1q-5.7 3.9-11.2 8-5.6 4.1-11 8.3-5.5 4.2-10.8 8.6-5.3 4.3-10.5 8.8l-1.8 1.5c2.7 24.1 8.2 69 12.8 70.7l-2.8 0.5c4.9 6.2 18.7 23.2 22.9 23.6 5.1 0.6 8.6 8.6 0 10.4-8 1.6-28.6 3.6-51.1-5.1q-1.2-0.5-2.2-1.3-1-0.9-1.7-2-0.7-1.1-0.9-2.4-0.3-1.3-0.1-2.6l1.6-12.7q-0.1 0.1-0.2 0.2-0.1 0.1-0.2 0.2-0.1 0.1-0.2 0.2 0 0.1-0.1 0.2c-1.1 3.5 0-4.6 0-4.6q-1.8-5.7-3.3-11.4-1.6-5.8-3-11.6-1.4-5.8-2.6-11.6-1.2-5.9-2.2-11.8l-17.1 14.8c0 0-0.3-0.5-0.9-1.2-4.1 9.5-11.6 28.9-9.9 43.1 2.3 19.5-19.5 2.3-17.2-9.2 1.8-9.3-6.5-48.7-9.7-63.4q-0.3-1.2-0.1-2.3 0.2-1.2 0.8-2.3 0.6-1.1 1.5-1.8 1-0.8 2.1-1.2z"/>
	<path id="Layer" class="s12" d="m575.9 259.9c0 0 16.2-2.8 40.3-24.7 19.1-17.3 44.8-13.9 54.7-11.7q0.5 0.1 0.9 0.5 0.4 0.4 0.5 0.9 0.1 0.6-0.2 1.1-0.2 0.4-0.7 0.7c-4 2.2-10.3 5.4-13.2 5.7 0 0 6 6.3-0.3 9.6q-0.6 0.3-1.2 0.4-0.7 0.1-1.3 0-0.6 0-1.2-0.2-0.6-0.3-1.1-0.7c-3.1-2.2-11.6 2.9-24 5.5 0 0-48.1 50-59.3 41.5z"/>
	<path id="Layer" class="s12" d="m493 192.1c0 0-4.5 19.1 0 32.5l-20.2 2.8-17.9-9v-11.7c0 0 8.4-18 6.2-38.7z"/>
	<path id="Layer" class="s13" d="m435.9 605.6c0 0-14.6 28.6-12.3 47.7 2.2 19-19.1 2.2-16.8-9 1.8-9.1-6.3-47.6-9.5-61.9q-0.2-1.2 0-2.4 0.1-1.1 0.7-2.2 0.6-1 1.5-1.8 1-0.7 2.1-1.1c6.7-2.2 18-5 23.7-0.8 8.3 6.2 10.6 31.5 10.6 31.5z"/>
	<path id="Layer" class="s13" d="m491.3 637c0 0 19.1 24.7 24.1 25.2 5 0.6 8.4 8.5 0 10.1-7.7 1.6-27.9 3.6-49.9-4.9q-1.2-0.5-2.2-1.3-0.9-0.8-1.6-1.9-0.6-1.1-0.9-2.4-0.2-1.3-0.1-2.5l3.2-24z"/>
	<path id="Layer" class="s14" d="m522.7 375l18.2 2.4c0 0-4.2 30.7 0.2 64.3v76.9c0 0 0.4 6.8-13.6 16.6q-5.5 3.9-11 7.8-5.4 4-10.7 8.2-5.3 4.1-10.5 8.3-5.2 4.3-10.3 8.7l-50.8 44.1c0 0-20.2-24.7-17.4-39.3 0 0 33.6-10.6 38.1-28 2.6-10 15.6-18.3 26.3-23.6 13.7-6.8 21.2-22.2 17.4-37.1q-0.2-1-0.5-1.9-0.3-0.9-0.7-1.8-0.3-0.9-0.7-1.8-0.4-0.9-0.9-1.7c-9-15.7-21.9-51.1-21.9-51.1l24.7-47.1z"/>
	<path id="Layer" class="s0" d="m522.8 375l18.2 2.4c0 0-4.3 30.7 0.2 64.3v76.9c0 0 0.4 6.8-13.6 16.6q-5.6 3.9-11 7.8-5.4 4-10.7 8.2-5.3 4.1-10.5 8.3-5.2 4.3-10.3 8.7l-50.8 44.1c0 0-20.2-24.7-17.4-39.3 0 0 33.6-10.6 38.1-28 2.6-10 15.6-18.3 26.3-23.6 13.7-6.8 21.2-22.2 17.4-37.1q-0.2-0.9-0.5-1.9-0.3-0.9-0.6-1.8-0.4-0.9-0.8-1.8-0.4-0.9-0.9-1.7c-9-15.7-21.8-51.1-21.8-51.1l24.6-47.1z"/>
	<path id="Layer" class="s14" d="m495.8 638.7c0 0-33.1 5.6-34.2 9-1.1 3.4 0-4.5 0-4.5 0 0-19-57.8-14.5-108.9 4.5-51-5.6-84.6-5.6-84.6 0 0-11.8-38.2-5.1-60.1 6.8-21.9 77.3-12.3 77.3-12.3 0 0-24.6 57.7-24.1 85.2 0 0-2.8 83.1-7.8 92.6 0 0 7.8 81.3 14 83.6z"/>
	<path id="Layer" class="s10" d="m491.9 206.7c0 0-3.4 20.7-37 11.7l22.4 170.6c0 0 65 2.2 64.4-5.6l-13.4-103.2z"/>
	<path id="Layer" class="s0" d="m491 205.5c0 0 6.4 6.9 16.2 7.7q2.1 0.2 4.2 0.6 2 0.4 4 1 2 0.6 4 1.4 1.9 0.8 3.7 1.8c5.8 3.2 12.1 7.9 14.1 13.6 3.9 11.3 28.6 29.8 39.8 25.8l-3.9 33.7c0 0-31.9-1.7-37.6-14l9.6 120h-8.4c0 0-4.5-32.5-7.9-39.2-3.3-6.8-10-43.8-10.6-52.8-0.6-9-9-60.6-16.2-69.5l-11-26.7z"/>
	<path id="Layer" class="s0" d="m491 207.2c0 0 7.5 6.3 17.3 7.2q2.1 0.1 4.2 0.5 2 0.4 4 1 2 0.6 4 1.4 1.9 0.8 3.7 1.8c5.8 3.2 12.2 7.9 14.1 13.7 3.9 11.2 28.6 29.7 39.8 25.8l-3.9 33.6c0 0-31.9-1.6-37.5-14l9.5 120.1h-8.4c0 0-4.5-32.6-7.8-39.3-3.4-6.7-10.1-43.8-10.7-52.8-0.5-8.9-8.9-60.6-16.2-69.5l-12.1-26.1z"/>
	<path id="Layer" class="s15" d="m491 206.1c0 0 7.5 6.3 17.3 7.1q2.1 0.2 4.2 0.6 2 0.4 4 1 2 0.6 4 1.4 1.9 0.8 3.7 1.8c5.8 3.2 12.2 7.9 14.1 13.6 3.9 11.3 28.6 29.8 39.8 25.8l-3.9 33.7c0 0-31.9-1.7-37.5-14l9.5 120h-8.4c0 0-4.5-32.5-7.8-39.2-3.4-6.8-10.1-43.8-10.7-52.8-0.5-9-8.9-60.6-16.2-69.5l-12.1-26.1z"/>
	<path id="Layer" class="s0" d="m462.5 184.5c0.7-5.3-0.7-8.6-1.4-14.9l31.9 24.2c0 0-0.8 3.2-1.3 8q-0.6 0.1-1.2 0.2-0.6 0-1.2 0.1-0.6 0-1.3 0.1-0.6 0-1.2 0c-11.1 0-19.1-8.7-24.3-17.7z"/>
	<path id="Layer" class="s12" d="m486.8 200.5c-16.7 0-30.2-13.5-30.2-30.3 0-16.7 13.5-30.3 30.2-30.3 16.8 0 30.3 13.6 30.3 30.3 0 16.8-13.5 30.3-30.3 30.3z"/>
	<path id="Layer" class="s0" d="m519.8 140.5q0.1-1.9 0-3.8-0.1-1.9-0.5-3.8-0.3-1.9-0.8-3.8-0.5-1.8-1.1-3.6 0.3 0.6 0.5 1.2 0.1 0.7 0 1.4-0.1 0.6-0.4 1.2-0.3 0.6-0.8 1.1-0.3-2-1-3.8-0.7-1.9-1.7-3.6-0.9-1.7-2.1-3.3-1.3-1.5-2.7-2.8c2.1 0.3 3.2 3 2.7 5.1-0.5 2.2-2.2 3.8-3.8 5.3 0.2-3.2-1.9-6.2-4.6-8-2.7-1.7-5.9-2.5-9-3.2q0.8 0.2 1.5 0.8 0.7 0.5 1.2 1.2 0.4 0.8 0.6 1.6 0.2 0.9 0.2 1.7 0 0.2-0.1 0.3 0 0.1 0 0.3-0.1 0.1-0.2 0.2-0.1 0.2-0.2 0.3-0.1 0-0.2 0.1-0.1 0-0.3 0.1-0.1 0-0.2 0-0.2 0-0.3 0-1.2 0.1-2.4 0.1-1.1 0-2.3 0-1.2-0.1-2.4-0.1-1.2-0.1-2.4-0.2-1.4-0.1-2.9-0.3-1.4-0.1-2.9-0.2-1.4 0-2.9-0.1-1.4 0-2.9 0c-12.2 0.5-24.4 8.9-27.1 20.8q-0.3 1-0.4 2.1-0.2 1.1-0.3 2.2-0.1 1.1-0.2 2.2 0 1.1 0 2.2l-0.6 15c-0.2 4.4-0.4 8.9 0.5 13.2q0.6 3 1.9 5.8 1.3 2.8 3.1 5.2 1.9 2.5 4.2 4.5 2.3 2 5.1 3.4c4.4-6.4 4.7-14.6 6.3-22.2q0.1-0.6 0.2-1.3 0.2-0.6 0.4-1.2 0.3-0.7 0.6-1.2 0.3-0.6 0.7-1.2c1.1-1.4 3-2.2 4.6-1.6 1.7 0.7 2.4 3.2 1 4.3 1.2 1.5 3.5 0.4 4.9-0.9q1.4-1.4 2.6-2.9 1.2-1.6 2.2-3.3 1-1.7 1.7-3.6 0.7-1.8 1.1-3.8c0.5-2.6 1.1-5.8 3.6-6.7q0.3-0.1 0.7-0.1 0.3-0.1 0.6-0.1 0.4 0 0.7 0 0.4 0 0.7 0c5.3 0.4 13.7 2.6 18.8 0.9 4.9-1.6 6.8-8.6 6.8-13.1z"/>
	<path id="Layer" class="s16" d="m519.3 139.9q0.1-1.9-0.1-3.8-0.1-1.9-0.4-3.8-0.3-1.9-0.8-3.7-0.5-1.9-1.2-3.7 0.4 0.6 0.5 1.3 0.2 0.6 0.1 1.3-0.1 0.7-0.4 1.2-0.3 0.6-0.8 1.1-0.4-2-1.1-3.8-0.6-1.9-1.6-3.6-1-1.7-2.2-3.3-1.2-1.5-2.7-2.8c2.2 0.3 3.3 3 2.7 5.1-0.5 2.2-2.1 3.8-3.7 5.3 0.2-3.2-1.9-6.2-4.6-8-2.7-1.7-5.9-2.4-9-3.2q0.8 0.3 1.5 0.8 0.6 0.5 1.1 1.3 0.5 0.7 0.7 1.5 0.2 0.9 0.1 1.7 0 0.2 0 0.3 0 0.2-0.1 0.3-0.1 0.1-0.1 0.3-0.1 0.1-0.2 0.2-0.1 0-0.3 0.1-0.1 0.1-0.2 0.1-0.1 0-0.3 0-0.1 0.1-0.2 0-1.2 0.1-2.4 0.1-1.2 0-2.4 0-1.2 0-2.3-0.1-1.2-0.1-2.4-0.1-1.5-0.2-2.9-0.3-1.5-0.2-2.9-0.2-1.5-0.1-2.9-0.1-1.5-0.1-3-0.1c-12.2 0.5-24.4 8.9-27.1 20.8q-0.2 1.1-0.4 2.2-0.1 1-0.3 2.1-0.1 1.1-0.1 2.2-0.1 1.1-0.1 2.2l-0.6 15c-0.2 4.4-0.3 8.9 0.5 13.2q0.7 3 1.9 5.8 1.3 2.8 3.2 5.2 1.8 2.5 4.2 4.4 2.3 2 5 3.5c4.4-6.4 4.8-14.6 6.3-22.2q0.1-0.7 0.3-1.3 0.1-0.7 0.4-1.3 0.2-0.6 0.5-1.2 0.3-0.6 0.7-1.1c1.1-1.4 3.1-2.3 4.7-1.6 1.6 0.7 2.3 3.2 1 4.3 1.2 1.4 3.5 0.4 4.8-0.9q1.5-1.4 2.7-2.9 1.2-1.6 2.2-3.3 0.9-1.8 1.6-3.6 0.7-1.9 1.1-3.8c0.6-2.6 1.1-5.8 3.6-6.7q0.4-0.1 0.7-0.2 0.3 0 0.7 0 0.3-0.1 0.7-0.1 0.3 0.1 0.6 0.1c5.4 0.4 13.7 2.6 18.9 0.9 4.8-1.5 6.8-8.5 6.8-13.1z"/>
	<path id="Layer" class="s0" d="m579.5 257.4c0 0 4.5 20.8-3.9 33.7l-4.8-0.4 2.6-32.9z"/>
	<path id="Layer" class="s17" d="m578.4 257.4c0 0 4.5 20.8-3.9 33.7l-4.8-0.4 2.6-32.9z"/>
	<path id="Layer" class="s0" d="m458 200.8l-36.1 31.1c0 0-21.3 21.9-12.3 57.2 0 0 3.9 51.7 8.4 53.9 0 0 15.6 31.4 16.8 61.2 0 0 21-42.4 30.5-16.6 9.5 25.8 31.6 29.5 31.6 29.5l-12.3-152.6c0 0-31.1-54.2-26.6-63.7z"/>
	<path id="Layer" class="s15" d="m456.9 200.8l-36.1 31.1c0 0-21.3 21.9-12.4 57.2 0 0 4 51.7 8.4 53.9 0 0 15.7 31.4 16.8 61.2 0 0 22.2-44.6 31.7-18.8 9.5 25.8 30.5 31.7 30.5 31.7l-12.3-152.6c0 0-31.1-54.2-26.6-63.7z"/>
	<path id="Layer" class="s12" d="m440.4 332.3c0 0-9-6.1-23.6 10.7l35.9 65.1 12-18.3c0 0-25.5-50.2-24.3-57.5z"/>
	<path id="Layer" class="s0" d="m449 336c0 0-19.8 22.3-27.5 18.7l-7.2-16.7 26.9-11.6z"/>
	<path id="Layer" class="s17" d="m449 334.9c0 0-19.8 22.3-27.5 18.7l-7.2-16.7 26.9-11.6z"/>
	<path id="Layer" class="s0" d="m463.5 385.6c0 0-9.4 19.4-14.5 20.5l7.3 8.4 10.7-20.2z"/>
	<path id="Layer" class="s18" d="m464.1 386.2c0 0-9.5 19.3-14.5 20.5l7.3 8.4 10.6-20.2z"/>
	<path id="Layer" class="s0" d="m446.2 266.4c0 0-1.1 40.4 3.4 55.6"/>
	<path id="Layer" class="s0" d="m537 274.3c0 0-6.8-2.3-6.8-7.9"/>
	<path id="Layer" class="s5" d="m625.4 225.3l47 7.6-0.6 3.3-47-7.6z"/>
	<path id="Layer" class="s5" d="m687.8 237c0 0-4.9 3.4-9.6 4q-0.3 0-0.6 0-0.3 0.1-0.7 0.1-0.3 0-0.6-0.1-0.3 0-0.7 0c-4.2-0.7-6.5-2.8-6.9-5.3q0-0.4 0-0.8 0-0.5 0.1-0.9 0-0.4 0.2-0.8 0.1-0.4 0.3-0.8c1.1-2.2 3.9-3.5 8.2-2.8q0.5 0.1 1 0.2 0.4 0.2 0.9 0.3 0.5 0.2 0.9 0.4 0.4 0.3 0.9 0.5 0.9 0.7 1.8 1.3 0.9 0.7 1.7 1.5 0.8 0.7 1.6 1.5 0.8 0.9 1.5 1.7z"/>
	<path id="Layer" class="s4" d="m687.8 237c0 0-4.9 3.4-9.6 4q0-0.2 0-0.4-0.1-0.2-0.1-0.4 0.1-0.2 0.1-0.4 0-0.2 0.1-0.4 0.2-0.3 0.4-0.5 0.2-0.3 0.4-0.5 0.2-0.3 0.4-0.5 0.2-0.2 0.4-0.4c0.5-0.7 0.6-1.8-0.1-2.3q-0.1 0-0.1 0-0.1-0.1-0.1-0.1-0.1 0-0.2-0.1 0 0-0.1 0c-0.4-0.4 0-1.1 0.4-1.5 0.7-0.7 1.5-1.6 1.5-2.5q0.9 0.6 1.8 1.3 0.9 0.7 1.7 1.4 0.8 0.8 1.6 1.6 0.8 0.9 1.5 1.7z"/>
</svg>