<svg version="1.2" xmlns="http://www.w3.org/2000/svg" viewBox="0 0 1176 764" width="1176" height="764">
	<title>undraw_Redesign_feedback_re_jvm0</title>
	<style>
		.s0 { fill: #ffb6b6 } 
		.s1 { fill: #e6e6e6 } 
		.s2 { fill: #a0616a } 
		.s3 { fill: #2f2e41 } 
		.s4 { fill: #3f3d56 } 
		.s5 { fill: #00bfa6 } 
	</style>
	<path id="uuid-25964adc-e6e4-4b9a-b8ec-929b0c1831fb-192" class="s0" d="m597.4 571.5c19.3 6.3 31.9 21.8 28.1 34.7-3.9 12.8-22.7 18.1-42.1 11.8-7.7-2.4-14.8-6.7-20.7-12.6l-81.6-27.7 13.3-39.7 79.1 31.6c8-1.4 16.2-0.7 23.9 1.9q0 0 0 0z"/>
	<path id="Layer" class="s1" d="m422.4 280.5c-19.5-2.4-37.4 11.3-41 31.4-13 71.6-40.5 226.6-36.8 230.3 4.7 4.9 180.6 58.9 180.6 58.9l20.4-45.8-116.2-58.9 25.5-171.3c3.2-21.8-11.5-42-32.5-44.6z"/>
	<path id="uuid-a5d71dbf-4b88-4e86-8463-d776047f9b39-193" class="s2" d="m634.3 646.1c-18.8 7.6-38 3.7-42.7-8.8-4.6-12.5 6.9-28.9 25.8-36.6 7.5-3.2 15.6-4.4 23.7-3.7l80.4-31.5 13.3 39.7-80.6 26.8c-5.5 6.3-12.3 11.1-19.9 14.1z"/>
	<path id="Layer" class="s1" d="m750.3 305.9c19.3-3.8 38 8.6 43 28.4 17.5 70.6 54.9 223.2 51.5 227.2-4.3 5.3-176.4 71.5-176.4 71.5l-23.3-44.3 112.2-66.9-36.5-169.2c-4.7-21.5 8.7-42.7 29.5-46.7z"/>
	<path id="Layer" class="s0" d="m408.6 290.8l9.6-62.4-64.7-27.4-9.6 94.8 64.7-5z"/>
	<path id="Layer" class="s2" d="m786.3 300.6l-9.6-62.4 64.7-27.4 9.5 94.8-64.6-5z"/>
	<path id="Layer" class="s0" d="m392.3 248.5c-36.5 0-66-30.7-66-68.7 0-38 29.5-68.8 66-68.8 36.4 0 65.9 30.8 65.9 68.8 0 38-29.5 68.7-65.9 68.7z"/>
	<path id="Layer" class="s3" d="m387 87.4c1.9 1.1 4.5-0.6 5.1-2.8 0.6-2.2-0.1-4.6-0.8-6.8l-3.6-11c-2.5-7.7-5.2-15.8-10.7-21.7-8.2-9-21.3-11.3-33.1-9.6-15.2 2.1-30.1 10.7-37.2 24.8-7 14.1-4 33.9 8.7 42.7-18.1 21.7-24.5 45.8-23.5 74.6 1 28.7 31.1 55.2 50.7 75.4 4.4-2.8 8.4-15.7 6-20.4-2.5-4.7 1-10.2-2-14.5-3-4.4-5.5 2.6-2.5-1.8 2-2.7-5.5-8.9-2.6-10.6 13.6-7.8 18.2-25.6 26.8-39.2 10.3-16.4 28.1-27.5 46.8-29.4 10.4-1 21.3 0.9 29.7 7.1 8.5 6.3 14 17.4 12 28.1 5.1-5.4 7.7-13.3 6.7-20.8-1-7.5-5.4-14.4-11.6-18.2 3.8-13.1 0.5-28.2-8.3-38.4-8.9-10.1-44.7-8.4-57.6-5.7"/>
	<path id="Layer" class="s3" d="m385 137.5c-17.1 2-29.4 17.4-39.8 31.6-6.1 8.2-12.3 17.3-12.2 27.6 0.2 10.4 6.9 19.4 10.1 29.3 5.2 16.1 0.1 35.4-12.4 46.4 12.3 2.5 25.6-7.1 27.8-20 2.4-15-8.5-29.4-7.2-44.5 1.2-13.4 11.3-23.6 19.8-33.6 8.6-9.9 16.6-23.2 12.7-35.9"/>
	<path id="Layer" class="s1" d="m416.1 280.3l-74.7-21.2-77 32.7-32.9 271.7 188.4 6.5v-43.8c0 0 33-42.9 26.7-105.1l-6.2-62.2c0 0-24.3-78.6-24.3-78.6z"/>
	<path id="Layer" class="s4" d="m450.6 390.8l-147.7-8.2-40 118.7c0 0-49.5 71.2-57.4 123.6-7.8 52.4-3.1 126-3.1 126h236.4l-18.9-224.7c0 0 44-99.4 38.9-116.6-5.1-17.1-8.2-18.8-8.2-18.8q0 0 0 0z"/>
	<path id="Layer" class="s4" d="m301.4 259.9h36.1v139.1h-36.1z"/>
	<path id="Layer" class="s4" d="m412.9 291h36.1v114.6h-36.1z"/>
	<path id="Layer" class="s1" d="m775.7 293.4l74.6-21.2 77 32.7 33 271.7-188.5 6.5v-43.8c0 0-19.3-44.8-0.8-104.3 18.1-58.1-19.6-63-19.6-63l24.3-78.6z"/>
	<path id="Layer" class="s4" d="m741.2 403.9l147.6-8.2 40.1 118.7c0 0 24.3 81 32.2 133.4 7.8 52.4 28.2 116.2 28.2 116.2h-236.3l-7.1-216-4.7-144.1q0 0 0 0z"/>
	<path id="Layer" class="s4" d="m854.3 273h36.1v139.1h-36.1z"/>
	<path id="Layer" class="s4" d="m742.7 304.1h36.2v114.6h-36.2z"/>
	<path id="Layer" class="s2" d="m800.9 258c-45.7 0-82.6-38.4-82.6-86 0-47.6 36.9-86.1 82.6-86.1 45.7 0 82.6 38.5 82.6 86.1 0 47.6-36.9 86-82.6 86z"/>
	<path id="Layer" class="s3" d="m882.1 218.6c0 0-39.9-49.9-55.9-45.8-16 4.2-6 10.5-6 10.5l-40-45.8c0 0-31.9-12.5-61.9 27 0 0-18-33.3 0-52 18-18.8 24-16.7 28-27.1 4-10.4 31.9-18.7 31.9-18.7 0 0-1.6-15 7.2-7.5 8.8 7.5 30.8 7.5 30.8 7.5 0 0 0.1-8.4 9 0 9 8.3 19 4.1 19 4.1 0 0 0 14.4 7 14.5 6.9 0.1 18.9-10.3 20.9-2 2 8.4 16 12.5 18 37.5 2 25-8 97.8-8 97.8z"/>
	<path id="Layer" class="s4" d="m575.8 347.1l63.9 126-8.7 4.8-64-126c-0.9-1.8-0.2-4.1 1.5-5l2.4-1.4c1.8-0.9 4-0.2 4.9 1.6z"/>
	<path id="Layer" class="s4" d="m682.3 520.7c-16.2-4.4-33.3 3.3-41.4 18.6-10.2 19.2-21.9 34.9-18-2.5 4.3-41.3-18.9-74.6-0.7-84.6 18.3-10.1 37.1 20.5 66.8 48.1 27.5 25.7 11.6 25.3-6.7 20.4z"/>
	<path id="uuid-cca3ea91-4b8f-4d88-9418-fea0098b5ff4-194" class="s0" d="m588.2 372.6c18.4-8.8 37.7-6 43.1 6.2 5.3 12.3-5.3 29.3-23.7 38.1-7.4 3.6-15.4 5.3-23.5 5l-78.6 36.2-15.5-38.8 79.1-31.5c5.1-6.6 11.7-11.8 19.1-15.2q0 0 0 0z"/>
	<path id="Layer" class="s1" d="m271.5 277.6c-16.1 11.7-20.6 34.4-10.5 51.9 36.3 62.3 115 196.8 120.1 197.1 6.7 0.4 172.3-81.8 172.3-81.8l-14.2-48.3-124.3 37-90.7-145.4c-11.5-18.4-35.5-23.2-52.7-10.5z"/>
	<path id="Layer" class="s5" d="m596 566l212.5-117.1 26 51.4c22.5 44.3 6.3 99.3-36.3 122.8l-58.3 32.1c-42.5 23.5-95.3 6.5-117.8-37.8l-26.1-51.4q0 0 0 0z"/>
	<path id="uuid-f7f7485f-a1d4-48b6-9f93-907c0610bac7-195" class="s2" d="m776 644.7c-18.4 8.8-37.7 6-43.1-6.2-5.3-12.2 5.3-29.3 23.7-38 7.3-3.7 15.4-5.4 23.5-5.1l78.6-36.1 15.5 38.7-79.2 31.6c-5 6.5-11.6 11.7-19 15.1z"/>
	<path id="Layer" class="s1" d="m935.8 298.5c19.5-2.4 37.4 11.3 41.1 31.4 12.9 71.7 40.4 226.6 36.8 230.3-4.7 4.9-180.7 58.9-180.7 58.9l-20.4-45.8 116.3-58.9-25.5-171.3c-3.3-21.8 11.5-42 32.4-44.6q0 0 0 0z"/>
</svg>