<svg version="1.2" xmlns="http://www.w3.org/2000/svg" viewBox="0 0 1176 764" width="1176" height="764">
	<title>undraw_Redesign_feedback_re_jvm0</title>
	<style>
		.s0 { fill: #00bfa6 } 
		.s1 { fill: #3f3d56 } 
		.s2 { fill: #ff6884 } 
		.s3 { fill: #ffb6b6 } 
		.s4 { opacity: .1;fill: #000000 } 
		.s5 { fill: #2f2e41 } 
		.s6 { fill: #e6e6e6 } 
		.s7 { fill: #ffffff } 
	</style>
	<path id="Layer" class="s0" d="m-149.9-77.5h-80.4c-2 0-3.6-1.6-3.6-3.7 0-2 1.6-3.6 3.6-3.6h80.4c2 0 3.7 1.6 3.7 3.6 0 2.1-1.7 3.7-3.7 3.7q0 0 0 0z"/>
	<path id="Layer" class="s0" d="m444.1 563.5h-80.4c-2 0-3.6-1.6-3.6-3.7 0-2 1.6-3.6 3.6-3.6h80.4c2 0 3.7 1.6 3.7 3.6 0 2.1-1.7 3.7-3.7 3.7q0 0 0 0z"/>
	<path id="Layer" class="s1" d="m300.6 583.2c0 0.6 0.5 1.2 1.2 1.2h204.3c0.6 0 1.2-0.6 1.2-1.2 0-0.7-0.6-1.2-1.2-1.2h-204.3c-0.7 0-1.2 0.5-1.2 1.2z"/>
	<path id="Layer" class="s2" d="m731.6 343.4c-35.9 0-65-29.1-65-65 0-35.9 29.1-65 65-65 36 0 65 29.1 65 65 0 35.9-29 65-65 65z"/>
	<path id="Layer" class="s1" d="m246 665.3c0 0.7 0.5 1.2 1.2 1.2h522.3c0.6 0 1.2-0.5 1.2-1.2 0-0.7-0.6-1.2-1.2-1.2h-522.3c-0.7 0-1.2 0.5-1.2 1.2z"/>
	<path id="Layer" class="s1" d="m253.6 584.9l-1.7-1.8 163-148.8 58.8 26.4 63.4-108.8 52.2-25.2 48.3 80.5c26-67.5 91.4-138.1 169.8-209.7l1.9 1.5c-73.5 70.4-136.4 141-172.1 212.5l-44.6-74.6c-2.1-3.6-6.6-4.9-10.3-3.2-28.5 13.3-52.2 34.9-68.1 62l-39.7 68-9.1-4.1c-30.4-13.6-65.9-7.9-90.4 14.6z"/>
	<path id="Layer" class="s1" d="m811 211l-2.4 0.2-4-8.7-9-1.8-0.3-2.5 14.7-2 1 14.8z"/>
	<path id="Layer" class="s3" d="m556.7 264l8.7-33.7 34.2-1.7 10.2 46.5-53.1-11.1z"/>
	<path id="Layer" class="s4" d="m556.7 264l8.7-33.7 34.2-1.7 10.2 46.5-53.1-11.1z"/>
	<path id="Layer" class="s3" d="m579.2 249.1c-22.8 0-41.3-18.4-41.3-41.2 0-22.8 18.5-41.2 41.3-41.2 22.7 0 41.2 18.4 41.2 41.2 0 22.8-18.5 41.2-41.2 41.2z"/>
	<path id="Layer" class="s5" d="m601.9 216.6c0 0-15.7-31-34-29.2-18.4 1.8-28 4-28 4 0 0-5.5-24.2 20.2-33.5 0 0-32.6-32.1 6.2-47.9 38.8-15.7 60.5 4.4 60.5 4.4 0 0 28.7 28.7-7.4 50.1 0 0 26.8 36.1-5.7 65.9 0 0 7.3-24.1-0.3-19.6-7.6 4.4-11.5 5.8-11.5 5.8q0 0 0 0z"/>
	<path id="Layer" class="s5" d="m533.7 434.4l-5.5 5.3-39.6 84.9-4.3 140.5h66.5l31.2-69.6 21 68.9h59.9l13.9-125.1-37.3-88.4-105.8-16.5z"/>
	<path id="Layer" class="s6" d="m602.6 260.6h-44.4l-48.4 26 11.3 50.3c0 0-2.6 30.3 3.5 52.9 6 22.5 3.4 52 3.4 52l111.5 9.1 3.4-102.3-1.7-68.5-38.6-19.5q0 0 0 0z"/>
	<path id="Layer" class="s6" d="m517.2 287c0 0-26.9 0.9-31.2 18.2-4.3 17.4-7.8 106.7-7.8 106.7 0 0 2.6 53 31.6 27.8 29.1-25.2 26.5-101.5 26.5-101.5 0 0-19.1-51.2-19.1-51.2z"/>
	<path id="Layer" class="s7" d="m777.9 729.4h-158.4c-5.3 0-9.7-4.4-9.7-9.7v-163.8c0-5.4 4.4-9.7 9.7-9.7h158.4c5.4 0 9.8 4.3 9.8 9.7v163.8c0 5.3-4.4 9.7-9.8 9.7z"/>
	<path id="Layer" fill-rule="evenodd" class="s1" d="m777.9 730.4h-158.4c-5.9 0-10.7-4.8-10.7-10.7v-163.8c0-5.9 4.8-10.7 10.7-10.7h158.4c5.9 0 10.8 4.8 10.8 10.7v163.8c0 5.9-4.9 10.7-10.8 10.7zm-158.4-183.2c-4.8 0-8.7 3.9-8.7 8.7v163.8c0 4.8 3.9 8.7 8.7 8.7h158.4c4.8 0 8.8-3.9 8.8-8.7v-163.8c0-4.8-4-8.7-8.8-8.7z"/>
	<path id="Layer" class="s0" d="m705 686.4h-13.1c-1.6 0-2.9-1-2.9-2.3v-56.2c0-1.2 1.3-2.2 2.9-2.2h13.1c1.6 0 2.9 1 2.9 2.2v56.2c0 1.3-1.3 2.3-2.9 2.3z"/>
	<path id="Layer" class="s0" d="m661.8 653.2c-1.3 0-2.3 0.9-2.3 1.8v29.1c0 1 1 1.8 2.3 1.8h13.1c1.2 0 2.3-0.8 2.3-1.8v-29.1c0-0.9-1.1-1.8-2.3-1.8z"/>
	<path id="Layer" class="s0" d="m735.1 686.4h-13.1c-1.6 0-2.9-1-2.9-2.3v-92.1c0-1.2 1.3-2.2 2.9-2.2h13.1c1.6 0 2.9 1 2.9 2.2v92.1c0 1.3-1.3 2.3-2.9 2.3z"/>
	<path id="Layer" class="s0" d="m454.1 282.6h-14.9c-1.8 0-3.3-1.2-3.3-2.6v-64.2c0-1.4 1.5-2.5 3.3-2.5h14.9c1.8 0 3.3 1.1 3.3 2.5v64.2c0 1.4-1.5 2.6-3.3 2.6q0 0 0 0z"/>
	<path id="Layer" class="s0" d="m404.8 244.7c-1.4 0-2.6 1-2.6 2.1v33.2c0 1.1 1.2 2 2.6 2h14.9c1.5 0 2.7-0.9 2.7-2v-33.2c0-1.1-1.2-2.1-2.7-2.1z"/>
	<path id="Layer" class="s0" d="m488.5 282.6h-14.9c-1.8 0-3.3-1.2-3.3-2.6v-105.2c0-1.4 1.5-2.5 3.3-2.5h14.9c1.8 0 3.3 1.1 3.3 2.5v105.2c0 1.4-1.5 2.6-3.3 2.6q0 0 0 0z"/>
	<path id="Layer" class="s3" d="m674.4 570c7.8-0.7 13.1-11.2 11.9-23.3-0.4-4.9-1.9-9.6-4.5-13.7l-1.5-13.7 0.2-0.1 3.8-65.2c0.8-15.1-5.2-30-16.7-39.8-6.9-5.9-14.2-8.9-18.9-1.5-7.9 12.3 2.3 62.9 8.9 91.6l2.6 30.8c-1.7 4.5-2.4 9.4-1.9 14.3 1.2 12.1 8.4 21.3 16.1 20.6z"/>
	<path id="Layer" class="s6" d="m631.7 281.8c0 0 22.5-8.7 32.9 17.3 10.4 26.1 21.7 154.4 21.7 154.4l-52.9-9.6-1.7-162.1q0 0 0 0z"/>
	<path id="Layer" class="s6" d="m322.1 269.1h-30.4c-2 0-3.6-1.7-3.6-3.7 0-2 1.6-3.7 3.6-3.7h30.4c2 0 3.7 1.7 3.7 3.7 0 2-1.7 3.7-3.7 3.7z"/>
	<path id="Layer" class="s6" d="m322.1 217h-30.4c-2 0-3.6-1.7-3.6-3.7 0-2 1.6-3.7 3.6-3.7h30.4c2 0 3.7 1.7 3.7 3.7 0 2-1.7 3.7-3.7 3.7z"/>
	<path id="Layer" class="s6" d="m322.1 179.4h-30.4c-2 0-3.6-1.6-3.6-3.6 0-2.1 1.6-3.7 3.6-3.7h30.4c2 0 3.7 1.6 3.7 3.7 0 2-1.7 3.6-3.7 3.6z"/>
	<path id="Layer" class="s1" d="m286.8 282.8c0 0.6 0.6 1.1 1.2 1.1h204.3c0.7 0 1.2-0.5 1.2-1.1 0-0.7-0.5-1.2-1.2-1.2h-204.3c-0.6 0-1.2 0.5-1.2 1.2z"/>
	<path id="Layer" class="s1" d="m680.8 590.8c0 0.6 0.6 1.1 1.2 1.1h204.3c0.7 0 1.2-0.5 1.2-1.1 0-0.7-0.5-1.2-1.2-1.2h-204.3c-0.6 0-1.2 0.5-1.2 1.2z"/>
	<path id="Layer" class="s1" d="m620.8 687.8c0 0.6 0.6 1.1 1.2 1.1h204.3c0.7 0 1.2-0.5 1.2-1.1 0-0.7-0.5-1.2-1.2-1.2h-204.3c-0.6 0-1.2 0.5-1.2 1.2z"/>
	<path id="Layer" class="s3" d="m483.5 276.7c-7.8 0.8-13.1 11.2-11.9 23.4 0.4 4.8 1.9 9.5 4.5 13.6l1.5 13.8h-0.2l-3.8 65.2c-0.8 15.2 5.2 30 16.7 39.9 6.9 5.8 14.2 8.8 18.9 1.4 7.9-12.3-2.3-62.8-8.9-91.6l-2.6-30.7c1.7-4.6 2.4-9.5 1.9-14.3-1.2-12.2-8.4-21.4-16.1-20.7z"/>
</svg>